<svg width="20" height="20" viewBox="0 0 20 20" fill="none" xmlns="http://www.w3.org/2000/svg">
<mask id="mask0_7806_5837" style="mask-type:alpha" maskUnits="userSpaceOnUse" x="0" y="0" width="20" height="20">
<rect width="20" height="20" fill="#D9D9D9"/>
</mask>
<g mask="url(#mask0_7806_5837)">
<path d="M9.99992 10.8333C9.76381 10.8333 9.56589 10.7534 9.40617 10.5937C9.24645 10.4339 9.16659 10.236 9.16659 9.99992V4.85409L5.91659 8.08325C5.76381 8.23603 5.57284 8.31589 5.34367 8.32283C5.1145 8.32978 4.91659 8.24992 4.74992 8.08325C4.59714 7.93047 4.52075 7.73603 4.52075 7.49992C4.52075 7.26381 4.59714 7.06936 4.74992 6.91658L9.41659 2.24992C9.49992 2.16659 9.5902 2.10756 9.68742 2.07284C9.78464 2.03811 9.88881 2.02075 9.99992 2.02075C10.111 2.02075 10.2152 2.03811 10.3124 2.07284C10.4096 2.10756 10.4999 2.16659 10.5833 2.24992L15.2499 6.91658C15.4027 7.06936 15.4791 7.26033 15.4791 7.4895C15.4791 7.71867 15.4027 7.91659 15.2499 8.08325C15.0833 8.24992 14.8853 8.33325 14.6562 8.33325C14.427 8.33325 14.2291 8.24992 14.0624 8.08325L10.8333 4.85409V9.99992C10.8333 10.236 10.7534 10.4339 10.5937 10.5937C10.4339 10.7534 10.236 10.8333 9.99992 10.8333ZM9.99992 14.9999C9.76381 14.9999 9.56589 14.9201 9.40617 14.7603C9.24645 14.6006 9.16659 14.4027 9.16659 14.1666V13.3333C9.16659 13.0971 9.24645 12.8992 9.40617 12.7395C9.56589 12.5798 9.76381 12.4999 9.99992 12.4999C10.236 12.4999 10.4339 12.5798 10.5937 12.7395C10.7534 12.8992 10.8333 13.0971 10.8333 13.3333V14.1666C10.8333 14.4027 10.7534 14.6006 10.5937 14.7603C10.4339 14.9201 10.236 14.9999 9.99992 14.9999ZM9.99992 18.3333C9.76381 18.3333 9.56589 18.2534 9.40617 18.0937C9.24645 17.9339 9.16659 17.736 9.16659 17.4999C9.16659 17.2638 9.24645 17.0659 9.40617 16.9062C9.56589 16.7464 9.76381 16.6666 9.99992 16.6666C10.236 16.6666 10.4339 16.7464 10.5937 16.9062C10.7534 17.0659 10.8333 17.2638 10.8333 17.4999C10.8333 17.736 10.7534 17.9339 10.5937 18.0937C10.4339 18.2534 10.236 18.3333 9.99992 18.3333Z" fill="#1C1B1F"/>
</g>
</svg>
