<?xml version="1.0" encoding="UTF-8"?>
<svg xmlns="http://www.w3.org/2000/svg" xmlns:xlink="http://www.w3.org/1999/xlink" width="512px" height="512px" viewBox="0 0 512 512" version="1.1">
<g id="surface1">
<path style=" stroke:none;fill-rule:nonzero;fill:rgb(100%,48.627451%,3.529412%);fill-opacity:1;" d="M 256 0 C 397.386719 0 512 114.613281 512 256 C 512 397.386719 397.386719 512 256 512 C 114.613281 512 0 397.386719 0 256 C 0 114.613281 114.613281 0 256 0 Z M 256 0 "/>
<path style=" stroke:none;fill-rule:nonzero;fill:rgb(98.823529%,98.823529%,98.823529%);fill-opacity:1;" d="M 234.84375 428.96875 C 232.199219 428.96875 229.457031 428.375 226.8125 426.980469 C 223.25 425.199219 217.042969 420.625 216.324219 409.511719 L 216.324219 315.667969 C 176.84375 310.207031 146.519531 278.332031 134 247.949219 C 113.144531 197.40625 140.207031 151.730469 148.957031 138.8125 C 184.675781 86.78125 245.738281 83.40625 252.550781 83.105469 C 259.375 82.8125 319.105469 82.511719 358.175781 130.574219 C 359.5 132.167969 389.824219 170.09375 385.25 224.417969 C 383.824219 241.488281 378.125 255.488281 377.8125 255.988281 C 373.84375 265.625 369.167969 272.667969 366.011719 276.9375 C 339.042969 312.792969 301.292969 362.832031 274.125 396.894531 C 259.875 414.863281 247.46875 428.875 234.75 428.875 Z M 245.53125 314.875 L 245.53125 386.167969 C 247.15625 384.1875 248.988281 382 251.03125 379.417969 C 277.988281 345.5625 315.644531 295.8125 342.40625 260.0625 C 344.238281 257.675781 347.699219 252.613281 350.644531 245.363281 C 350.644531 245.363281 354.917969 234.636719 356.042969 222.125 C 359.699219 179.03125 335.488281 148.75 335.28125 148.449219 C 304.550781 110.71875 255.605469 111.707031 253.574219 111.800781 C 251.4375 111.800781 201.46875 113.894531 173.28125 154.90625 C 166.46875 164.730469 145.605469 199.886719 161.175781 237.324219 C 170.03125 258.769531 190.375 281.3125 216.324219 286.769531 L 216.636719 226.699219 C 222.125 199.488281 243.90625 179.136719 268.425781 178.332031 C 299.96875 177.25 320.625 207.925781 323.375 230.46875 C 325.40625 247.25 318.792969 265.230469 304.855469 281.113281 C 289.699219 298.292969 267.917969 310.605469 245.738281 314.875 Z M 245.53125 230.96875 L 245.53125 285.480469 C 259.375 281.511719 272.90625 273.269531 282.46875 262.449219 C 290.917969 252.90625 295.1875 242.386719 294.167969 233.84375 C 292.84375 223.019531 282.574219 206.9375 269.855469 206.9375 C 269.644531 206.9375 269.542969 206.9375 269.34375 206.9375 C 260.28125 207.230469 249.09375 215.769531 245.53125 230.96875 Z M 245.53125 230.96875 "/>
</g>
</svg>
