<svg width="41" height="40" viewBox="0 0 41 40" fill="none" xmlns="http://www.w3.org/2000/svg">
<circle cx="20.375" cy="20" r="20" fill="#F3F1E0"/>
<g clip-path="url(#clip0_7192_22743)">
<path d="M32.9689 34.1647L37.375 20.627L34.3411 19.6403V8.83545H6.375V23.0719H7.17136L6.375 25.5162L32.9689 34.1642V34.1647ZM34.974 24.2568L35.1588 24.3169L33.3415 29.9013L33.1572 29.8412C32.8422 29.7389 32.5233 29.6902 32.2103 29.6902C30.9211 29.6902 29.7229 30.5111 29.3026 31.8028L29.242 31.9876L10.6822 25.9512L10.7423 25.7665C10.8447 25.4516 10.8933 25.1328 10.8933 24.8194C10.8933 24.1878 10.6936 23.5784 10.3394 23.0709H20.6146C20.7726 23.1876 20.9495 23.2973 21.1497 23.3986L20.719 24.7221C20.4368 24.5056 20.2038 24.1982 20.019 23.7979C19.9832 23.6961 19.9132 23.6286 19.8093 23.5953C19.7522 23.5764 19.6255 23.5893 19.6255 23.5893H19.623L18.9389 23.7398C18.8222 23.7646 18.7497 23.8247 18.7213 23.9181C18.702 23.9792 18.7074 24.0403 18.7348 24.1033C18.8172 24.3601 18.9524 24.6253 19.1411 24.8984C19.4457 25.3434 19.8416 25.6865 20.3245 25.9333L20.1541 26.4558C20.099 26.6251 20.1914 26.8074 20.3618 26.862L20.9251 27.0453C21.0945 27.1004 21.2774 27.008 21.332 26.8387L21.5019 26.3152C21.9749 26.3947 22.414 26.3813 22.8184 26.2715C23.4563 26.0947 23.8821 25.7059 24.0927 25.099C24.2238 24.7206 24.2238 24.3626 24.0902 24.0254C23.9442 23.6638 23.6759 23.3485 23.3043 23.0709H33.3982C33.7658 23.6102 34.3053 24.0388 34.974 24.2563V24.2568ZM21.9033 25.0851L22.2809 23.9241C22.5541 24.1192 22.65 24.3457 22.5641 24.6059C22.4831 24.8473 22.3107 24.9987 22.0479 25.0608C22.0022 25.0727 21.9525 25.0797 21.9033 25.0846V25.0851ZM7.34673 13.0174H7.54098C8.38603 13.0174 9.1491 12.6758 9.70353 12.122C10.2575 11.5678 10.5988 10.8045 10.5992 9.95978V9.76561H30.1168V9.95978C30.1168 10.805 30.4591 11.5678 31.0125 12.122C31.5665 12.6753 32.3296 13.0174 33.1751 13.0174H33.3693V18.8899H33.1751C32.3296 18.8899 31.566 19.232 31.0125 19.7853C30.4591 20.339 30.1168 21.1023 30.1168 21.9475V22.1417H10.5992V21.9475C10.5988 21.1028 10.2575 20.3395 9.70353 19.7853C9.1491 19.2316 8.38553 18.8899 7.54098 18.8899H7.34673V13.0174Z" fill="#FF7C09"/>
<path d="M29.0075 31.5033C29.5326 30.155 30.8198 29.3023 32.2098 29.3023C32.5009 29.3023 32.795 29.3495 33.0872 29.4264L34.6744 24.5512C33.9208 24.2582 33.3261 23.7283 32.9456 23.0718H27.6815C27.6815 23.6667 27.5921 24.2716 27.3984 24.868C26.6 27.3208 24.3237 28.8792 21.8755 28.8792C21.2798 28.8792 20.6752 28.7873 20.0781 28.5931C17.6239 27.7951 16.068 25.5186 16.068 23.0718H10.7915C11.101 23.5967 11.2808 24.1966 11.2808 24.8204C11.2808 25.1114 11.2341 25.4059 11.1566 25.6979L29.0075 31.5033Z" fill="#F1C1BE"/>
<path d="M10.6817 25.9516L29.2414 31.988L29.302 31.8032C29.7223 30.5115 30.9206 29.6906 32.2098 29.6906C32.5228 29.6906 32.8422 29.7393 33.1567 29.8416L33.341 29.9017L35.1583 24.3173L34.9735 24.2572C34.3048 24.0397 33.7652 23.6111 33.3976 23.0718H32.945C33.3256 23.7283 33.9202 24.2582 34.6739 24.5512L33.0866 29.4264C32.7945 29.3495 32.5004 29.3023 32.2093 29.3023C30.8193 29.3023 29.5321 30.155 29.0069 31.5033L11.1561 25.6979C11.2336 25.4059 11.2803 25.1114 11.2803 24.8204C11.2803 24.1966 11.1005 23.5967 10.791 23.0718H10.3379C10.6921 23.5793 10.8918 24.1882 10.8918 24.8204C10.8918 25.1337 10.8431 25.4525 10.7408 25.7674L10.6807 25.9521L10.6817 25.9516Z" fill="#F3F1E0"/>
<path d="M21.9033 25.0851C21.9525 25.0802 22.0022 25.0732 22.0479 25.0613C22.3107 24.9992 22.4831 24.8478 22.5641 24.6064C22.65 24.3462 22.5541 24.1192 22.2809 23.9246L21.9033 25.0856V25.0851Z" fill="#F3F1E0"/>
<path d="M18.9389 23.7397L19.623 23.5893H19.6255C19.6255 23.5893 19.7521 23.5764 19.8093 23.5952C19.9131 23.629 19.9832 23.696 20.0189 23.7978C20.2032 24.1986 20.4367 24.5055 20.7189 24.722L21.1496 23.3986C20.9499 23.2978 20.7726 23.1875 20.6146 23.0708H17.0769C17.0784 25.0915 18.3661 26.9757 20.3905 27.6342C20.8744 27.7911 21.3737 27.8711 21.8759 27.8711C23.9605 27.8711 25.7952 26.5391 26.44 24.5557C26.6005 24.063 26.674 23.5629 26.674 23.0713H23.3047C23.6763 23.3489 23.9446 23.6643 24.0907 24.0258C24.2243 24.363 24.2243 24.7206 24.0931 25.0995C23.8825 25.7058 23.4572 26.0952 22.8189 26.272C22.4145 26.3817 21.9758 26.3951 21.5024 26.3157L21.3324 26.8391C21.2778 27.008 21.095 27.1008 20.9256 27.0457L20.3622 26.8624C20.1918 26.8073 20.0994 26.6256 20.1545 26.4562L20.3249 25.9338C19.8416 25.687 19.4461 25.3438 19.1416 24.8988C18.9528 24.6262 18.8177 24.361 18.7352 24.1038C18.7079 24.0407 18.7024 23.9791 18.7218 23.9185C18.7501 23.8252 18.8226 23.7651 18.9394 23.7402L18.9389 23.7397Z" fill="#F3F1E0"/>
<path d="M21.8755 27.8716C21.3728 27.8716 20.8735 27.7921 20.3901 27.6347C18.3657 26.9762 17.078 25.0925 17.0765 23.0713H16.0685C16.0685 25.5181 17.6244 27.7946 20.0786 28.5926C20.6758 28.7868 21.2804 28.8787 21.876 28.8787C24.3242 28.8787 26.6005 27.3198 27.3989 24.8675C27.5931 24.2711 27.6821 23.6662 27.6821 23.0713H26.6741C26.6741 23.5634 26.6005 24.063 26.4401 24.5557C25.7952 26.5386 23.9606 27.8711 21.876 27.8711L21.8755 27.8716Z" fill="#F3F1E0"/>
<path d="M20.2311 10.1541H10.9768C10.8799 11.9016 9.48296 13.2986 7.73474 13.3959V18.5116C9.48296 18.6089 10.8799 20.0059 10.9768 21.7535H20.2311C17.0824 21.6854 14.5488 19.1174 14.5488 15.9535C14.5488 12.7896 17.0824 10.2221 20.2311 10.1541Z" fill="#F1C1BE"/>
<path d="M20.485 21.7535H29.7383C29.8357 20.0059 31.2326 18.6089 32.9814 18.5116V13.3959C31.2321 13.2986 29.8357 11.9016 29.7383 10.1541H20.485C23.6332 10.2221 26.1658 12.7901 26.1658 15.9535C26.1658 19.1169 23.6332 21.6854 20.485 21.7535Z" fill="#F1C1BE"/>
<path d="M30.1168 22.1417V21.9476C30.1168 21.1028 30.4591 20.3395 31.0125 19.7853C31.5664 19.2316 32.3295 18.8899 33.175 18.8899H33.3693V13.0174H33.175C32.3295 13.0174 31.5659 12.6758 31.0125 12.1221C30.4591 11.5678 30.1168 10.8045 30.1168 9.9598V9.76562H10.5992V9.9598C10.5987 10.805 10.2574 11.5678 9.70347 12.1221C9.14905 12.6753 8.38548 13.0174 7.54093 13.0174H7.34668V18.8899H7.54093C8.38597 18.8899 9.14905 19.2321 9.70347 19.7853C10.2574 20.339 10.5987 21.1023 10.5992 21.9476V22.1417H30.1168ZM29.7382 10.154C29.8356 11.9016 31.2326 13.2985 32.9813 13.3959V18.5115C31.2321 18.6088 29.8356 20.0058 29.7382 21.7534H20.4849C23.6331 21.6853 26.1658 19.1174 26.1658 15.9534C26.1658 12.7895 23.6331 10.222 20.4849 10.154H29.7382ZM25.1583 15.9534C25.1583 18.5994 23.0047 20.7522 20.3577 20.7522C17.7108 20.7522 15.5567 18.5994 15.5567 15.9534C15.5567 13.3075 17.7113 11.1551 20.3577 11.1551C23.0042 11.1551 25.1583 13.308 25.1583 15.9534ZM7.73468 18.5115V13.3959C9.4829 13.2985 10.8799 11.9016 10.9768 10.154H20.2311C17.0824 10.222 14.5487 12.79 14.5487 15.9534C14.5487 19.1169 17.0824 21.6853 20.2311 21.7534H10.9768C10.8799 20.0058 9.4829 18.6088 7.73468 18.5115Z" fill="#F3F1E0"/>
<path d="M19.3792 14.6775C19.3806 14.9149 19.5118 15.0838 19.7696 15.1826V14.1943L19.7239 14.2117C19.4924 14.323 19.3782 14.4779 19.3792 14.6775Z" fill="#F3F1E0"/>
<path d="M21.0076 17.8599C21.0528 17.8395 21.0975 17.8176 21.1377 17.7918C21.3687 17.6518 21.4855 17.4541 21.488 17.1994C21.4895 16.9247 21.328 16.739 21.0081 16.6382V17.8594L21.0076 17.8599Z" fill="#F3F1E0"/>
<path d="M20.3578 11.155C17.7114 11.155 15.5568 13.3078 15.5568 15.9533C15.5568 18.5988 17.7114 20.7521 20.3578 20.7521C23.0042 20.7521 25.1583 18.5993 25.1583 15.9533C25.1583 13.3074 23.0047 11.155 20.3578 11.155ZM22.2461 18.705C21.8954 18.9345 21.482 19.083 21.0081 19.1535V19.7042C21.0081 19.8825 20.8635 20.0265 20.6847 20.0265H20.0925C19.9137 20.0265 19.7691 19.882 19.7691 19.7042V19.1545C19.233 19.0691 18.7512 18.865 18.3239 18.5357C18.0601 18.3351 17.848 18.1245 17.6915 17.906C17.6458 17.8543 17.6214 17.7977 17.6209 17.7337C17.6195 17.6363 17.6691 17.5564 17.7725 17.4968L18.3766 17.1422L18.3781 17.1412C18.3781 17.1412 18.4953 17.0896 18.5559 17.0896C18.6647 17.0896 18.7517 17.1323 18.8172 17.2172C19.1168 17.5415 19.4337 17.762 19.7691 17.8802V16.4887C18.9921 16.369 18.4307 16.078 18.0835 15.6136C17.8778 15.341 17.7715 15.0271 17.7645 14.673C17.7506 13.9534 18.1421 13.4097 18.9384 13.0471C19.1854 12.9339 19.4621 12.8569 19.7686 12.8142V12.2029C19.7686 12.0241 19.9132 11.8796 20.092 11.8796H20.6842C20.863 11.8796 21.0076 12.0241 21.0076 12.2029V12.8301C21.6594 12.9438 22.1939 13.2358 22.6078 13.7066C22.6669 13.7603 22.6957 13.8228 22.6947 13.8939C22.6932 13.9827 22.646 14.0562 22.5561 14.1134L21.8919 14.5295L21.8904 14.5305C21.8904 14.5305 21.7737 14.5896 21.6887 14.5891C21.5834 14.5891 21.4915 14.5548 21.412 14.4888C21.2823 14.3761 21.1477 14.2887 21.0081 14.2231V15.3375C21.8015 15.4483 22.3857 15.7278 22.7603 16.1743C22.9918 16.4534 23.1026 16.7941 23.0946 17.1943C23.0817 17.8365 22.7985 18.338 22.2466 18.7031L22.2461 18.705Z" fill="#F3F1E0"/>
<path d="M20.0924 20.0265H20.6846C20.8635 20.0265 21.008 19.882 21.008 19.7042V19.1535C21.482 19.083 21.8953 18.9345 22.246 18.7051C22.798 18.34 23.0817 17.838 23.0941 17.1963C23.102 16.7961 22.9907 16.4554 22.7597 16.1763C22.3852 15.7298 21.8009 15.4508 21.0075 15.3395V14.2251C21.1471 14.2907 21.2818 14.3786 21.4114 14.4908C21.4914 14.5568 21.5828 14.5906 21.6881 14.5911C21.7731 14.5911 21.8898 14.5325 21.8898 14.5325L21.8913 14.5315L22.5556 14.1154C22.646 14.0582 22.6927 13.9847 22.6942 13.8959C22.6952 13.8243 22.6658 13.7618 22.6072 13.7086C22.1934 13.2378 21.6588 12.9453 21.007 12.8321V12.2049C21.007 12.0261 20.8625 11.8816 20.6836 11.8816H20.0915C19.9126 11.8816 19.768 12.0261 19.768 12.2049V12.8162C19.4615 12.8589 19.1848 12.9359 18.9379 13.0491C18.1415 13.4117 17.7501 13.955 17.764 14.675C17.7704 15.0291 17.8767 15.343 18.0829 15.6156C18.4302 16.08 18.9915 16.371 19.7685 16.4907V17.8822C19.4332 17.764 19.1162 17.5435 18.8167 17.2192C18.7511 17.1338 18.6642 17.0916 18.5554 17.0916C18.4948 17.0916 18.3775 17.1432 18.3775 17.1432L18.376 17.1442L17.7719 17.4988C17.6691 17.5584 17.6189 17.6383 17.6204 17.7357C17.6209 17.7997 17.6452 17.8563 17.6909 17.908C17.8474 18.127 18.0596 18.3376 18.3234 18.5377C18.7506 18.8665 19.233 19.0711 19.7685 19.1565V19.7062C19.7685 19.8845 19.9131 20.0285 20.0919 20.0285L20.0924 20.0265ZM21.0075 16.6387C21.3275 16.739 21.4894 16.9252 21.4874 17.1998C21.485 17.4546 21.3682 17.6517 21.1372 17.7923C21.097 17.8181 21.0523 17.84 21.007 17.8603V16.6391L21.0075 16.6387ZM19.379 14.6775C19.3781 14.4779 19.4923 14.3229 19.7238 14.2117L19.7695 14.1943V15.1826C19.5117 15.0833 19.381 14.9149 19.379 14.6775Z" fill="#FF7C09"/>
</g>
<defs>
<clipPath id="clip0_7192_22743">
<rect width="31" height="25.3293" fill="white" transform="translate(6.375 8.83545)"/>
</clipPath>
</defs>
</svg>
