<svg width="20" height="20" viewBox="0 0 20 20" fill="none" xmlns="http://www.w3.org/2000/svg">
<mask id="mask0_9638_27122" style="mask-type:alpha" maskUnits="userSpaceOnUse" x="0" y="0" width="20" height="20">
<rect width="20" height="20" fill="#D9D9D9"/>
</mask>
<g mask="url(#mask0_9638_27122)">
<path d="M10.0003 14.1458C9.88921 14.1458 9.78505 14.1285 9.68783 14.0938C9.5906 14.059 9.50033 14 9.41699 13.9167L5.58366 10.0833C5.43088 9.93056 5.35449 9.73611 5.35449 9.5C5.35449 9.26389 5.43088 9.06944 5.58366 8.91667C5.73644 8.76389 5.93088 8.6875 6.16699 8.6875C6.4031 8.6875 6.59755 8.76389 6.75033 8.91667L10.0003 12.1667L13.2503 8.91667C13.4031 8.76389 13.5975 8.6875 13.8337 8.6875C14.0698 8.6875 14.2642 8.76389 14.417 8.91667C14.5698 9.06944 14.6462 9.26389 14.6462 9.5C14.6462 9.73611 14.5698 9.93056 14.417 10.0833L10.5837 13.9167C10.5003 14 10.41 14.059 10.3128 14.0938C10.2156 14.1285 10.1114 14.1458 10.0003 14.1458Z" fill="#494D5D"/>
</g>
</svg>
