<svg width="41" height="42" viewBox="0 0 41 42" fill="none" xmlns="http://www.w3.org/2000/svg">
<circle cx="20.875" cy="20" r="20" fill="#F3F1E0"/>
<g clip-path="url(#clip0_7192_22718)">
<path d="M11.3638 8.8536C11.3638 8.38217 10.9816 8 10.5102 8C10.0388 8 9.65662 8.38217 9.65662 8.8536V41.1464C9.65662 41.6178 10.0388 42 10.5102 42C10.9816 42 11.3638 41.6178 11.3638 41.1464V8.8536Z" fill="#FED073"/>
<path d="M32.3357 26.7495C22.6127 24.0751 19.5591 27.291 14.5773 27.291C11.7683 27.291 10.2079 26.6375 9.65148 26.3458C9.50586 26.2697 9.41431 26.1189 9.41431 25.9548V10.6172C9.41431 10.4964 9.54256 10.4179 9.64951 10.4743C10.2048 10.7655 11.7651 11.4206 14.5769 11.4206C20.0409 11.4206 22.6123 8.20435 32.3353 10.8792V26.7499L32.3357 26.7495Z" fill="#FF7C09"/>
</g>
<defs>
<clipPath id="clip0_7192_22718">
<rect width="22.9214" height="34" fill="white" transform="translate(9.41431 8)"/>
</clipPath>
</defs>
</svg>
