<svg width="41" height="40" viewBox="0 0 41 40" fill="none" xmlns="http://www.w3.org/2000/svg">
<circle cx="20.125" cy="20" r="20" fill="#F3F1E0"/>
<path d="M37.125 25.7153C37.125 26.4207 36.4948 27 35.7245 27H4.52552C3.75523 27 3.125 26.4207 3.125 25.7153C3.125 25.0098 3.75523 24.4305 4.52552 24.4305H35.7245C36.4948 24.4305 37.125 25.0098 37.125 25.7153ZM21.7613 9.56036C21.7193 8.69142 21.005 8 20.1273 8C19.2497 8 18.5447 8.68675 18.4934 9.55102C19.0163 9.48562 19.5531 9.45291 20.09 9.45291C20.6269 9.45291 21.2104 9.49496 21.7566 9.56036H21.7613ZM34.4733 23.2906H5.78132C6.36021 15.8672 12.5598 10.0229 20.1273 10.0229C27.6948 10.0229 33.8945 15.8672 34.4733 23.2906ZM18.4841 11.2842C18.4841 11.2842 10.4404 13.0408 8.04083 21.9498H11.08C11.08 21.9498 12.7606 14.5171 18.4841 11.2842Z" fill="#FF7C09"/>
</svg>
