<svg width="41" height="47" viewBox="0 0 41 47" fill="none" xmlns="http://www.w3.org/2000/svg">
<circle cx="20.625" cy="20" r="20" fill="#F3F1E0"/>
<g clip-path="url(#clip0_7192_22730)">
<path d="M28.8767 6.55643V31.0019C28.8767 32.2965 27.8858 33.338 26.6635 33.338H16.2489C15.0266 33.338 14.0358 32.2893 14.0358 31.0019V6.55643C14.0358 5.26183 15.0266 4.21313 16.2489 4.21313H26.6635C27.8858 4.21313 28.8767 5.26183 28.8767 6.55643Z" fill="#FF7C09"/>
<path d="M20.2412 8.10415L21.76 10.4185L18.9105 9.85439L17.7171 13.0583L16.1766 10.0641L13.5585 11.2358L14.8675 8.54532L10.3762 5.50771L15.8222 6.13693L16.408 2L18.2306 5.64513L21.2248 3.89489L19.8217 6.49132L22.6496 6.95419L20.2412 8.10415Z" fill="#FED073"/>
<path d="M28.5078 19.5386L24.1756 21.6866L28.8839 19.676V19.6977L29.4408 19.4374L29.7662 19.2855C30.4244 18.9745 31.2344 19.2999 31.5743 20.0232L31.625 20.1317C31.9649 20.8477 31.7045 21.6794 31.0391 21.9976L29.26 22.8366C29.1443 22.8945 29.0647 22.9595 28.8984 23.0319L23.9152 25.7151L28.8984 23.2344L29.1877 23.097L29.3974 22.9595C29.6071 22.8366 29.8386 22.7643 30.0772 22.7643C30.3014 22.7643 30.5256 22.8221 30.7426 22.9234C30.7571 22.9378 30.7716 22.9451 30.7932 22.9523C30.8222 22.974 30.8583 22.9885 30.8873 23.0029H30.8945C31.1187 23.1476 31.3212 23.3429 31.4803 23.5888C31.6539 23.8781 31.7479 24.1818 31.7624 24.4856C31.7696 24.5941 31.7624 24.7098 31.7479 24.8183C31.7479 24.8327 31.7479 24.8617 31.7407 24.8761C31.7335 24.8978 31.7262 24.9268 31.7262 24.9412C31.7262 24.9412 31.7118 25.0135 31.7045 25.0425V25.0569C31.6973 25.0859 31.6901 25.1003 31.6756 25.122C31.6684 25.1437 31.6611 25.1654 31.6539 25.1871C31.5527 25.4041 31.3935 25.5994 31.1766 25.7296L29.4842 26.7927L29.3757 26.8578C29.3395 26.8795 29.2961 26.9012 29.26 26.9157C29.2455 26.9301 29.2383 26.9446 29.2166 26.9518C29.1081 27.0169 29.0285 27.1109 28.9273 27.1905L28.9056 27.2122C28.9056 27.2122 28.8984 27.2194 28.8911 27.2267L24.7904 30.163L28.9056 27.3713L28.9345 27.3424L29.1804 27.176C29.3468 27.0965 29.5348 27.0531 29.7301 27.0531C29.8747 27.0531 30.0194 27.0675 30.164 27.1182C30.1785 27.1254 30.193 27.1326 30.2074 27.1471C30.2364 27.1543 30.2725 27.176 30.3014 27.176V27.1833C30.5257 27.2845 30.7426 27.4292 30.9162 27.6389C31.1187 27.8776 31.2489 28.1524 31.2995 28.42C31.314 28.5213 31.3284 28.6225 31.3212 28.731V28.7961C31.3212 28.7961 31.3212 28.8323 31.3212 28.854C31.3212 28.854 31.314 28.919 31.3067 28.948C31.3067 28.9552 31.3067 28.9624 31.3067 28.9697C31.3067 28.9914 31.2995 29.0131 31.2923 29.0348C31.2923 29.0637 31.2778 29.0709 31.2778 29.0999C31.2127 29.3168 31.0898 29.5121 30.9162 29.6712L30.0772 30.3872C29.7301 30.7705 29.3106 31.0598 28.9128 31.3708C28.6814 31.5589 28.4572 31.7469 28.2547 31.9711C27.8497 32.4268 27.5025 32.8824 27.1264 33.338C26.9962 33.5189 26.8661 33.7069 26.7359 33.8877C26.5695 34.1047 26.3887 34.3144 26.1862 34.4952C25.9909 34.6688 25.7812 34.8062 25.5715 34.9581C24.8916 35.9634 24.0237 37.0121 23.2209 37.7209C21.6081 39.1312 19.988 39.1384 18.3391 40.2522C18.1655 40.4837 16.7986 42.581 16.6539 42.7908L4.2865 35.8621C5.26287 34.4084 6.21755 32.8028 6.62256 31.0598C6.65873 30.908 6.69489 30.7561 6.72382 30.6042C6.86847 29.9026 7.03481 29.1939 7.00588 28.4634C7.00588 27.8631 7.0999 26.5685 7.22285 25.5415C7.30241 24.9557 7.32411 24.3048 7.6351 23.7913C7.98949 23.2054 8.06181 22.5762 8.30048 21.9108C8.69103 20.9706 9.00202 20.1027 9.1973 19.1191C9.47213 17.9475 10.2605 17.1953 10.9258 16.2189C11.2441 15.7271 11.3598 14.7363 11.584 13.8323C11.772 13.0367 12.0396 12.2918 12.5893 12.0025C12.799 11.894 13.0522 11.8578 13.3632 11.9012C13.6308 11.9301 13.8477 12.0892 14.0213 12.3279C14.0213 12.3279 14.0285 12.3279 14.0358 12.3351V18.3453C14.0358 18.3453 14.0358 18.3525 14.0285 18.3597V18.2946C13.9273 18.649 13.6959 18.989 13.544 19.2999C13.327 19.6833 13.4644 20.081 13.3993 20.5078C13.3632 20.8621 13.2764 21.1731 13.2619 21.5275C13.2402 21.8819 13.2764 22.2942 13.204 22.6269C13.4861 22.352 13.7031 22.0989 14.0285 21.8675V22.0772V21.9108C15.07 21.1008 16.6177 20.3993 17.7749 19.8713C19.3805 19.0613 21.2103 18.5261 22.9244 17.8318C24.1973 17.34 25.4557 16.8482 26.678 16.284C27.4229 15.9441 28.1534 15.5825 28.8694 15.1702V15.1486L29.6144 14.7652C29.882 14.6278 30.1713 14.5627 30.4533 14.5627C31.1332 14.5627 31.7985 14.9388 32.124 15.5897C32.5941 16.5155 32.2253 17.6365 31.3067 18.0994L29.3395 19.0974H29.3106L28.8694 19.3289L28.4933 19.5169L28.5078 19.5386Z" fill="#EEC4A7"/>
</g>
<defs>
<clipPath id="clip0_7192_22730">
<rect width="30.7232" height="45" fill="white" transform="translate(1.625 2)"/>
</clipPath>
</defs>
</svg>
