<svg width="16" height="17" viewBox="0 0 16 17" fill="none" xmlns="http://www.w3.org/2000/svg">
<mask id="mask0_8498_24614" style="mask-type:alpha" maskUnits="userSpaceOnUse" x="0" y="0" width="16" height="17">
<rect y="0.5" width="16" height="16" fill="#D9D9D9"/>
</mask>
<g mask="url(#mask0_8498_24614)">
<path d="M5.08334 4.76634L6.95001 2.34967C7.08334 2.1719 7.24168 2.04134 7.42501 1.95801C7.60834 1.87467 7.80001 1.83301 8.00001 1.83301C8.20001 1.83301 8.39168 1.87467 8.57501 1.95801C8.75834 2.04134 8.91668 2.1719 9.05001 2.34967L10.9167 4.76634L13.75 5.71634C14.0389 5.80523 14.2667 5.96912 14.4333 6.20801C14.6 6.4469 14.6833 6.71079 14.6833 6.99967C14.6833 7.13301 14.6639 7.26634 14.625 7.39967C14.5861 7.53301 14.5222 7.66079 14.4333 7.78301L12.6 10.383L12.6667 13.1163C12.6778 13.5052 12.55 13.833 12.2833 14.0997C12.0167 14.3663 11.7056 14.4997 11.35 14.4997C11.3278 14.4997 11.2056 14.483 10.9833 14.4497L8.00001 13.6163L5.01668 14.4497C4.96112 14.4719 4.90001 14.4858 4.83334 14.4913C4.76668 14.4969 4.70557 14.4997 4.65001 14.4997C4.29445 14.4997 3.98334 14.3663 3.71668 14.0997C3.45001 13.833 3.32223 13.5052 3.33334 13.1163L3.40001 10.3663L1.58334 7.78301C1.49445 7.66079 1.43057 7.53301 1.39168 7.39967C1.35279 7.26634 1.33334 7.13301 1.33334 6.99967C1.33334 6.7219 1.4139 6.46356 1.57501 6.22467C1.73612 5.98579 1.96112 5.81634 2.25001 5.71634L5.08334 4.76634Z" fill="#CACACA"/>
</g>
</svg>
