<svg width="14" height="13" viewBox="0 0 14 13" fill="none" xmlns="http://www.w3.org/2000/svg">
<path d="M4.08337 3.26634L5.95004 0.849675C6.08337 0.671897 6.24171 0.541341 6.42504 0.458008C6.60837 0.374674 6.80004 0.333008 7.00004 0.333008C7.20004 0.333008 7.39171 0.374674 7.57504 0.458008C7.75837 0.541341 7.91671 0.671897 8.05004 0.849675L9.91671 3.26634L12.75 4.21634C13.0389 4.30523 13.2667 4.46912 13.4334 4.70801C13.6 4.9469 13.6834 5.21079 13.6834 5.49967C13.6834 5.63301 13.6639 5.76634 13.625 5.89967C13.5862 6.03301 13.5223 6.16079 13.4334 6.28301L11.6 8.88301L11.6667 11.6163C11.6778 12.0052 11.55 12.333 11.2834 12.5997C11.0167 12.8663 10.7056 12.9997 10.35 12.9997C10.3278 12.9997 10.2056 12.983 9.98337 12.9497L7.00004 12.1163L4.01671 12.9497C3.96115 12.9719 3.90004 12.9858 3.83337 12.9913C3.76671 12.9969 3.7056 12.9997 3.65004 12.9997C3.29449 12.9997 2.98337 12.8663 2.71671 12.5997C2.45004 12.333 2.32226 12.0052 2.33337 11.6163L2.40004 8.86634L0.583374 6.28301C0.494485 6.16079 0.430596 6.03301 0.391707 5.89967C0.352818 5.76634 0.333374 5.63301 0.333374 5.49967C0.333374 5.2219 0.41393 4.96356 0.575041 4.72467C0.736152 4.48579 0.961152 4.31634 1.25004 4.21634L4.08337 3.26634ZM4.90004 4.41634L1.66671 5.48301L3.73337 8.46634L3.66671 11.6497L7.00004 10.733L10.3334 11.6663L10.2667 8.46634L12.3334 5.51634L9.10004 4.41634L7.00004 1.66634L4.90004 4.41634Z" fill="#494D5D"/>
</svg>
