<svg width="17" height="16" viewBox="0 0 17 16" fill="none" xmlns="http://www.w3.org/2000/svg">
<mask id="mask0_8151_2058" style="mask-type:alpha" maskUnits="userSpaceOnUse" x="0" y="0" width="17" height="16">
<rect x="0.736084" width="16" height="16" fill="#D9D9D9"/>
</mask>
<g mask="url(#mask0_8151_2058)">
<path d="M5.81934 4.26683L7.686 1.85016C7.81934 1.67239 7.97767 1.54183 8.161 1.4585C8.34434 1.37516 8.536 1.3335 8.736 1.3335C8.936 1.3335 9.12767 1.37516 9.311 1.4585C9.49434 1.54183 9.65267 1.67239 9.786 1.85016L11.6527 4.26683L14.486 5.21683C14.7749 5.30572 15.0027 5.46961 15.1693 5.7085C15.336 5.94739 15.4193 6.21127 15.4193 6.50016C15.4193 6.6335 15.3999 6.76683 15.361 6.90016C15.3221 7.0335 15.2582 7.16127 15.1693 7.2835L13.336 9.8835L13.4027 12.6168C13.4138 13.0057 13.286 13.3335 13.0193 13.6002C12.7527 13.8668 12.4416 14.0002 12.086 14.0002C12.0638 14.0002 11.9416 13.9835 11.7193 13.9502L8.736 13.1168L5.75267 13.9502C5.69711 13.9724 5.636 13.9863 5.56934 13.9918C5.50267 13.9974 5.44156 14.0002 5.386 14.0002C5.03045 14.0002 4.71934 13.8668 4.45267 13.6002C4.186 13.3335 4.05822 13.0057 4.06934 12.6168L4.136 9.86683L2.31934 7.2835C2.23045 7.16127 2.16656 7.0335 2.12767 6.90016C2.08878 6.76683 2.06934 6.6335 2.06934 6.50016C2.06934 6.22238 2.14989 5.96405 2.311 5.72516C2.47211 5.48627 2.69711 5.31683 2.986 5.21683L5.81934 4.26683Z" fill="#31343F"/>
</g>
</svg>
