<svg width="199" height="35" viewBox="0 0 199 35" fill="none" xmlns="http://www.w3.org/2000/svg">
<g clip-path="url(#clip0_9884_149997)">
<path d="M10.68 34.83C10.42 34.83 10.15 34.77 9.89 34.63C9.54 34.45 8.93 33.99 8.86 32.87V23.42C4.98 22.87 2 19.66 0.770002 16.6C-1.28 11.51 1.38 6.91001 2.24 5.61001C5.75 0.370006 11.75 0.0300057 12.42 5.67921e-06C13.09 -0.0299943 18.96 -0.0599942 22.8 4.78001C22.93 4.94001 25.91 8.76001 25.46 14.23C25.32 15.95 24.76 17.36 24.73 17.41C24.34 18.38 23.88 19.09 23.57 19.52C20.92 23.13 17.21 28.17 14.54 31.6C13.14 33.41 11.92 34.82 10.67 34.82L10.68 34.83ZM11.73 23.34V30.52C11.89 30.32 12.07 30.1 12.27 29.84C14.92 26.43 18.62 21.42 21.25 17.82C21.43 17.58 21.77 17.07 22.06 16.34C22.06 16.34 22.48 15.26 22.59 14C22.95 9.66001 20.57 6.61001 20.55 6.58001C17.53 2.78001 12.72 2.88001 12.52 2.89001C12.31 2.89001 7.4 3.10001 4.63 7.23001C3.96 8.22001 1.91 11.76 3.44 15.53C4.31 17.69 6.31 19.96 8.86 20.51L8.89 14.46C9.43 11.72 11.57 9.67001 13.98 9.59001C17.08 9.48001 19.11 12.57 19.38 14.84C19.58 16.53 18.93 18.34 17.56 19.94C16.07 21.67 13.93 22.91 11.75 23.34H11.73ZM11.73 14.89V20.38C13.09 19.98 14.42 19.15 15.36 18.06C16.19 17.1 16.61 16.04 16.51 15.18C16.38 14.09 15.37 12.47 14.12 12.47C14.1 12.47 14.09 12.47 14.07 12.47C13.18 12.5 12.08 13.36 11.73 14.89Z" fill="#FF7C09"/>
<path d="M38.41 27.93V10.53H32.41V6.93001H48.49V10.53H42.31V27.93H38.41Z" fill="#FF7C09"/>
<path d="M54.64 28.23C53.34 28.23 52.16 27.87 51.1 27.15C50.04 26.43 49.19 25.45 48.55 24.21C47.91 22.97 47.59 21.56 47.59 19.98C47.59 18.4 47.91 16.99 48.55 15.75C49.19 14.51 50.06 13.54 51.16 12.84C52.26 12.14 53.5 11.79 54.88 11.79C55.68 11.79 56.41 11.91 57.07 12.14C57.73 12.37 58.31 12.69 58.81 13.12C59.31 13.54 59.73 14.02 60.06 14.56C60.39 15.1 60.62 15.68 60.74 16.3L59.93 16.09V12.13H63.65V27.94H59.9V24.16L60.77 24.01C60.63 24.55 60.38 25.07 60.01 25.59C59.64 26.1 59.18 26.55 58.63 26.94C58.08 27.33 57.47 27.65 56.8 27.88C56.13 28.12 55.41 28.24 54.65 28.24L54.64 28.23ZM55.66 24.96C56.52 24.96 57.28 24.75 57.94 24.33C58.6 23.91 59.11 23.33 59.48 22.58C59.85 21.83 60.03 20.97 60.03 19.98C60.03 18.99 59.84 18.17 59.48 17.43C59.11 16.69 58.59 16.11 57.94 15.69C57.28 15.27 56.52 15.06 55.66 15.06C54.8 15.06 54.04 15.27 53.39 15.69C52.74 16.11 52.24 16.69 51.88 17.43C51.52 18.17 51.34 19.02 51.34 19.98C51.34 20.94 51.52 21.83 51.88 22.58C52.24 23.33 52.75 23.91 53.39 24.33C54.04 24.75 54.8 24.96 55.66 24.96Z" fill="#FF7C09"/>
<path d="M73.21 28.23C71.81 28.23 70.55 27.99 69.44 27.53C68.33 27.06 67.43 26.38 66.73 25.5L69.13 23.43C69.73 24.11 70.4 24.6 71.14 24.9C71.88 25.2 72.66 25.35 73.48 25.35C73.82 25.35 74.13 25.31 74.4 25.23C74.67 25.15 74.9 25.03 75.11 24.87C75.31 24.71 75.47 24.53 75.57 24.31C75.68 24.1 75.74 23.87 75.74 23.61C75.74 23.13 75.56 22.75 75.2 22.47C75 22.33 74.69 22.18 74.26 22.02C73.83 21.86 73.27 21.7 72.59 21.54C71.51 21.26 70.61 20.94 69.89 20.56C69.17 20.19 68.61 19.78 68.21 19.32C67.87 18.94 67.61 18.51 67.44 18.03C67.27 17.55 67.19 17.03 67.19 16.47C67.19 15.77 67.34 15.14 67.65 14.56C67.96 13.99 68.39 13.5 68.93 13.08C69.47 12.66 70.1 12.34 70.82 12.12C71.54 11.9 72.29 11.79 73.07 11.79C73.85 11.79 74.65 11.89 75.4 12.09C76.15 12.29 76.85 12.57 77.5 12.94C78.15 13.31 78.71 13.75 79.17 14.27L77.13 16.52C76.75 16.16 76.34 15.84 75.89 15.56C75.44 15.28 74.98 15.06 74.52 14.88C74.06 14.71 73.63 14.63 73.23 14.63C72.83 14.63 72.51 14.67 72.21 14.73C71.91 14.8 71.66 14.91 71.46 15.04C71.26 15.18 71.1 15.35 71 15.56C70.89 15.77 70.83 16.02 70.83 16.3C70.85 16.54 70.91 16.76 71.03 16.97C71.14 17.18 71.29 17.36 71.49 17.49C71.71 17.63 72.04 17.79 72.48 17.97C72.92 18.15 73.49 18.32 74.19 18.48C75.17 18.74 75.99 19.03 76.65 19.35C77.31 19.67 77.83 20.04 78.21 20.46C78.59 20.82 78.86 21.24 79.02 21.72C79.18 22.2 79.26 22.73 79.26 23.31C79.26 24.25 78.99 25.09 78.46 25.83C77.93 26.57 77.21 27.15 76.3 27.57C75.39 27.99 74.36 28.2 73.22 28.2L73.21 28.23Z" fill="#FF7C09"/>
<path d="M81.07 15.54V12.12H91.33V15.54H81.07ZM84.19 27.93V8.10001H87.88V27.93H84.19Z" fill="#FF7C09"/>
<path d="M96.55 34.83L99.91 27.06L99.94 29.52L92.14 12.12H96.4L100.75 22.44C100.89 22.7 101.03 23.05 101.17 23.48C101.31 23.91 101.43 24.33 101.53 24.75L100.78 24.99C100.92 24.61 101.07 24.21 101.23 23.78C101.39 23.35 101.54 22.9 101.68 22.44L105.4 12.12H109.69L103.09 27.93L100.39 34.83H96.55Z" fill="#FF7C09"/>
<path d="M112.66 27.93V6.93001H121.39C122.59 6.93001 123.67 7.22001 124.64 7.80001C125.61 8.38001 126.39 9.17001 126.97 10.17C127.55 11.17 127.84 12.29 127.84 13.53C127.84 14.77 127.55 15.93 126.97 16.93C126.39 17.94 125.61 18.74 124.64 19.35C123.67 19.95 122.59 20.25 121.39 20.25H116.56V27.93H112.66ZM116.56 16.65H121.12C121.62 16.65 122.08 16.51 122.49 16.23C122.9 15.95 123.23 15.58 123.48 15.12C123.73 14.66 123.86 14.14 123.86 13.56C123.86 12.98 123.74 12.47 123.48 12.02C123.22 11.57 122.9 11.21 122.49 10.94C122.08 10.67 121.62 10.54 121.12 10.54H116.56V16.66V16.65Z" fill="#FF7C09"/>
<path d="M131.35 27.93V5.73001H135.07V27.93H131.35Z" fill="#FF7C09"/>
<path d="M145.09 28.23C143.79 28.23 142.61 27.87 141.55 27.15C140.49 26.43 139.64 25.45 139 24.21C138.36 22.97 138.04 21.56 138.04 19.98C138.04 18.4 138.36 16.99 139 15.75C139.64 14.51 140.51 13.54 141.61 12.84C142.71 12.14 143.95 11.79 145.33 11.79C146.13 11.79 146.86 11.91 147.52 12.14C148.18 12.37 148.76 12.69 149.26 13.12C149.76 13.54 150.18 14.02 150.51 14.56C150.84 15.1 151.06 15.68 151.18 16.3L150.37 16.09V12.13H154.09V27.94H150.34V24.16L151.21 24.01C151.07 24.55 150.81 25.07 150.45 25.59C150.08 26.1 149.62 26.55 149.07 26.94C148.52 27.33 147.91 27.65 147.24 27.88C146.57 28.12 145.85 28.24 145.09 28.24V28.23ZM146.11 24.96C146.97 24.96 147.73 24.75 148.39 24.33C149.05 23.91 149.56 23.33 149.93 22.58C150.3 21.83 150.49 20.97 150.49 19.98C150.49 18.99 150.3 18.17 149.93 17.43C149.56 16.69 149.05 16.11 148.39 15.69C147.73 15.27 146.97 15.06 146.11 15.06C145.25 15.06 144.49 15.27 143.84 15.69C143.19 16.11 142.69 16.69 142.33 17.43C141.97 18.17 141.79 19.02 141.79 19.98C141.79 20.94 141.97 21.83 142.33 22.58C142.69 23.33 143.19 23.91 143.84 24.33C144.49 24.75 145.25 24.96 146.11 24.96Z" fill="#FF7C09"/>
<path d="M156.97 15.54V12.12H167.23V15.54H156.97ZM160.09 27.93V8.10001H163.78V27.93H160.09Z" fill="#FF7C09"/>
<path d="M177.31 28.23C175.65 28.23 174.19 27.88 172.91 27.18C171.64 26.48 170.65 25.53 169.94 24.31C169.23 23.1 168.87 21.72 168.87 20.16C168.87 18.92 169.07 17.79 169.47 16.77C169.87 15.75 170.43 14.87 171.14 14.12C171.85 13.37 172.7 12.79 173.69 12.38C174.68 11.97 175.76 11.77 176.94 11.77C177.98 11.77 178.95 11.97 179.85 12.37C180.75 12.77 181.53 13.31 182.19 14C182.85 14.69 183.36 15.51 183.7 16.46C184.05 17.41 184.21 18.45 184.2 19.56L184.17 20.85H171.36L170.67 18.33H181.08L180.6 18.84V18.18C180.54 17.56 180.34 17.01 180 16.55C179.66 16.09 179.23 15.71 178.7 15.44C178.17 15.17 177.58 15.04 176.95 15.04C175.97 15.04 175.15 15.23 174.48 15.61C173.81 15.99 173.3 16.54 172.96 17.25C172.62 17.96 172.45 18.85 172.45 19.9C172.45 20.95 172.66 21.81 173.1 22.57C173.53 23.33 174.14 23.92 174.93 24.32C175.72 24.73 176.64 24.94 177.71 24.94C178.45 24.94 179.13 24.82 179.75 24.58C180.37 24.34 181.04 23.91 181.76 23.29L183.59 25.84C183.05 26.34 182.43 26.77 181.75 27.11C181.06 27.46 180.33 27.74 179.58 27.94C178.82 28.14 178.07 28.24 177.33 28.24L177.31 28.23Z" fill="#FF7C09"/>
<path d="M192.76 28.23C191.36 28.23 190.1 27.99 188.99 27.53C187.88 27.06 186.98 26.38 186.28 25.5L188.68 23.43C189.28 24.11 189.95 24.6 190.69 24.9C191.43 25.2 192.21 25.35 193.03 25.35C193.37 25.35 193.68 25.31 193.95 25.23C194.22 25.15 194.45 25.03 194.66 24.87C194.86 24.71 195.01 24.53 195.12 24.31C195.23 24.1 195.29 23.87 195.29 23.61C195.29 23.13 195.11 22.75 194.75 22.47C194.55 22.33 194.24 22.18 193.8 22.02C193.37 21.86 192.81 21.7 192.13 21.54C191.05 21.26 190.15 20.94 189.43 20.56C188.71 20.19 188.15 19.78 187.75 19.32C187.41 18.94 187.16 18.51 186.99 18.03C186.82 17.55 186.74 17.03 186.74 16.47C186.74 15.77 186.89 15.14 187.2 14.56C187.51 13.99 187.94 13.5 188.48 13.08C189.02 12.66 189.65 12.34 190.37 12.12C191.09 11.9 191.84 11.79 192.62 11.79C193.4 11.79 194.2 11.89 194.95 12.09C195.7 12.29 196.4 12.57 197.05 12.94C197.7 13.31 198.26 13.75 198.72 14.27L196.68 16.52C196.3 16.16 195.89 15.84 195.43 15.56C194.98 15.28 194.52 15.06 194.07 14.88C193.61 14.71 193.18 14.63 192.78 14.63C192.38 14.63 192.06 14.67 191.76 14.73C191.46 14.8 191.21 14.91 191.01 15.04C190.81 15.18 190.65 15.35 190.55 15.56C190.44 15.77 190.38 16.02 190.38 16.3C190.4 16.54 190.46 16.76 190.58 16.97C190.69 17.18 190.84 17.36 191.04 17.49C191.26 17.63 191.59 17.79 192.03 17.97C192.47 18.15 193.04 18.32 193.74 18.48C194.72 18.74 195.54 19.03 196.2 19.35C196.86 19.67 197.38 20.04 197.76 20.46C198.14 20.82 198.41 21.24 198.57 21.72C198.73 22.2 198.81 22.73 198.81 23.31C198.81 24.25 198.55 25.09 198.02 25.83C197.49 26.57 196.77 27.15 195.86 27.57C194.95 27.99 193.93 28.2 192.79 28.2L192.76 28.23Z" fill="#FF7C09"/>
</g>
<defs>
<clipPath id="clip0_9884_149997">
<rect width="198.79" height="34.83" fill="white"/>
</clipPath>
</defs>
</svg>
