<svg width="24" height="24" viewBox="0 0 24 24" fill="none" xmlns="http://www.w3.org/2000/svg">
<g clip-path="url(#clip0_6893_1909)">
<path d="M20.2929 19.9598L13.803 10.4458L13.0693 9.36975L8.42696 2.56401L8.04234 2H2.33789L3.72915 4.04016L9.9017 13.0903L10.6354 14.1651L15.5949 21.4366L15.9797 22.0002H21.6841L20.2929 19.96V19.9598ZM16.6576 20.6979L11.5051 13.1436L10.7714 12.0682L4.79237 3.30208H7.36424L12.1995 10.3913L12.9332 11.4667L19.2295 20.6977H16.6576V20.6979Z" fill="#31343F"/>
<path d="M10.7715 12.0679L11.5052 13.1432L10.6354 14.1648L3.96145 21.9998H2.31567L9.90166 13.0899L10.7715 12.0679Z" fill="#31343F"/>
<path d="M20.9974 2L13.8033 10.4458L12.9334 11.4667L12.1997 10.3913L13.0696 9.36976L17.9428 3.64595L19.3517 2H20.9974Z" fill="#31343F"/>
</g>
<defs>
<clipPath id="clip0_6893_1909">
<rect width="19.3684" height="20" fill="white" transform="translate(2.31567 2)"/>
</clipPath>
</defs>
</svg>
